<svg width="493" height="619" viewBox="0 0 493 619" fill="none" xmlns="http://www.w3.org/2000/svg">
<path d="M397.53 198.95C383.18 128.23 321.68 74.95 246.86 74.95C187.41 74.95 136.16 108.77 110.53 157.95C49.03 164.1 0.859985 216.37 0.859985 279.95C0.859985 347.59 56.2 402.95 123.86 402.95H390.36C446.73 402.95 492.86 356.82 492.86 300.45C492.968 274.549 483.146 249.591 465.413 230.711C447.681 211.831 423.387 200.464 397.53 198.95V198.95ZM279.65 259.4V337.3H214.05V259.4H144.35L246.85 156.95L349.35 259.45L279.65 259.4Z" fill="#6C63FF"/>
<path d="M146.61 247.7C145.61 241.99 146.1 235.84 143.48 230.7C143.226 230.093 142.816 229.565 142.29 229.17C141.637 228.817 140.901 228.648 140.16 228.68C137.79 228.59 135.43 228.56 133.06 228.62C132.4 228.62 131.62 228.72 131.28 229.3C131.24 229.362 131.21 229.429 131.19 229.5C128.48 226.5 126.43 222.71 123.51 219.91C123.93 219.77 124.34 219.64 124.77 219.53C124.77 219.24 124.67 218.97 124.61 218.69C124.61 218.6 124.56 218.52 124.54 218.44C124.52 218.36 124.45 218.06 124.39 217.87C124.33 217.68 124.33 217.68 124.29 217.59C124.239 217.41 124.179 217.233 124.11 217.06C124.11 216.97 124.04 216.88 124 216.79L123.79 216.26L123.67 216.01C123.59 215.83 123.51 215.65 123.42 215.48L123.3 215.26C123.21 215.07 123.11 214.88 123.01 214.69L122.91 214.51C122.8 214.31 122.68 214.11 122.57 213.9C122.541 213.867 122.517 213.83 122.5 213.79C122.37 213.56 122.23 213.33 122.09 213.11C120.95 211.25 119.69 209.42 118.76 207.51C117.13 204.15 116.59 200.36 115.5 196.78C114.41 193.2 112.5 189.56 109.26 187.85C107.69 187.05 105.59 186.34 105.44 184.57C105.435 184.001 105.555 183.438 105.79 182.92C106.24 181.773 106.785 180.666 107.42 179.61C107.66 179.23 107.91 178.85 108.16 178.47L108.36 178.2C108.56 177.92 108.77 177.64 108.98 177.38L109.24 177.05C109.45 176.79 109.67 176.55 109.89 176.3L110.16 176.01C110.47 175.68 110.78 175.36 111.11 175.01C111.414 174.776 111.654 174.47 111.81 174.12C111.897 173.773 111.914 173.413 111.86 173.06C111.7 170.2 113.2 167.53 114.86 165.23C116.52 162.93 118.48 160.75 119.43 158.06C119.54 157.75 119.63 157.44 119.71 157.12C119.739 157.018 119.763 156.915 119.78 156.81C119.83 156.6 119.87 156.39 119.91 156.17L119.97 155.81C119.97 155.61 120.02 155.41 120.04 155.22V154.83V154.24V153.85C120.04 153.66 120.04 153.46 120.04 153.26C120.04 153.06 120.04 153.01 120.04 152.88C120.04 152.75 120.04 152.46 119.99 152.25V151.91C119.99 151.67 119.92 151.42 119.89 151.18C119.89 151.1 119.89 151.02 119.89 150.94C119.843 150.613 119.783 150.28 119.71 149.94C119.234 147.815 118.619 145.724 117.87 143.68C117.472 142.424 116.963 141.206 116.35 140.04C116.72 139.97 117.1 139.89 117.47 139.79C117.176 139.33 116.906 138.857 116.66 138.37C118.962 134.98 120.688 131.233 121.77 127.28C122.343 124.456 122.678 121.59 122.77 118.71C123.32 110.05 123.88 101.35 123.16 92.71V92.37C123.43 90.5144 123.45 88.631 123.22 86.77C122.989 83.1298 121.914 79.5933 120.08 76.44C118.14 73.38 114.94 70.68 111.38 70.32C110.793 70.9809 110.143 71.5837 109.44 72.12C108.368 71.1786 107.582 69.9557 107.17 68.59C111.327 67.9376 115.154 65.9385 118.065 62.8998C120.975 59.8612 122.807 55.951 123.28 51.77C123.28 51.46 123.35 51.14 123.37 50.83C123.37 50.7 123.37 50.57 123.37 50.44C123.37 50.31 123.37 50.07 123.37 49.89C123.37 49.71 123.37 49.56 123.37 49.39V48.98C123.37 48.79 123.37 48.59 123.37 48.4C123.37 48.21 123.37 48.19 123.37 48.09C123.37 47.99 123.37 47.65 123.31 47.44C123.315 47.3634 123.315 47.2866 123.31 47.21L123.22 46.51V46.36C123.22 46.11 123.14 45.86 123.09 45.61V45.53C123.04 45.26 122.98 45 122.91 44.73C122.462 42.9098 121.752 41.1648 120.8 39.55C121.582 37.7832 122.095 35.909 122.32 33.99C122.32 33.64 122.39 33.3 122.41 32.99C122.43 32.68 122.41 32.55 122.41 32.33C122.41 32.11 122.41 32.11 122.41 32.01C122.41 31.72 122.41 31.43 122.41 31.15C122.405 31.1202 122.405 31.0898 122.41 31.06C122.265 26.2543 120.345 21.6726 117.02 18.2C117.402 17.5662 117.72 16.8963 117.97 16.2V16.2C118.05 15.99 118.12 15.78 118.18 15.56C118.24 15.35 118.3 15.15 118.35 14.94V14.89L118.47 14.32C118.464 14.2869 118.464 14.2531 118.47 14.22C118.47 14 118.54 13.77 118.57 13.54C118.6 13.31 118.57 13.07 118.63 12.84C118.63 12.77 118.63 12.69 118.63 12.62C118.63 12.55 118.63 12.29 118.63 12.13V11.89C118.63 11.73 118.63 11.56 118.63 11.4C118.63 11.24 118.63 11.26 118.63 11.19C118.461 8.21914 117.18 5.42091 115.04 3.3531C112.9 1.28529 110.06 0.0997931 107.085 0.0329278C104.11 -0.0339374 101.219 1.02274 98.9886 2.99232C96.7582 4.9619 95.3518 7.69971 95.05 10.66C94.9055 11.8687 94.9426 13.0922 95.16 14.29C92.2528 15.708 89.7474 17.8321 87.8729 20.4683C85.9985 23.1044 84.8147 26.1683 84.43 29.38C84.304 30.4551 84.2672 31.5388 84.32 32.62C82.5947 35.3275 81.5643 38.4189 81.32 41.62V41.62C81.32 41.74 81.32 41.86 81.32 41.98C81.32 42.38 81.27 42.79 81.27 43.19C81.2613 46.1518 81.9298 49.0764 83.2245 51.7403C84.5192 54.4042 86.4057 56.7369 88.74 58.56C89.7158 60.1358 91.0018 61.4967 92.52 62.56C92.7942 63.3744 92.9983 64.2108 93.13 65.06C93.2415 66.2017 93.0924 67.3537 92.694 68.4294C92.2956 69.5051 91.6583 70.4764 90.83 71.27C90.4 71.63 89.92 71.93 89.47 72.27C89.0158 72.1402 88.5342 72.1402 88.08 72.27C82.92 73.89 77.98 77.1 75.61 82.01C75.0846 83.127 74.6693 84.2925 74.37 85.49L74.09 85.92C70.9556 90.825 68.7017 96.2396 67.43 101.92C66.78 104.83 66.37 107.85 65.01 110.5C64.6841 111.053 64.4192 111.64 64.22 112.25C64.1045 113.182 64.0644 114.122 64.1 115.06C63.96 116.76 62.97 118.27 62.64 119.94C62.44 120.94 62.48 121.94 62.31 122.94C61.8336 124.658 61.2078 126.331 60.44 127.94C59.38 130.88 59.39 134.11 58.6 137.14C58.504 137.639 58.2916 138.108 57.98 138.51C57.3546 138.998 56.6514 139.376 55.9 139.63C55.3502 139.974 54.8797 140.431 54.5194 140.971C54.1592 141.51 53.9174 142.12 53.81 142.76C53.6017 144.05 53.5781 145.363 53.74 146.66L54.13 151.73L48.45 153.45L39.13 156.3C36.3989 156.991 33.789 158.093 31.39 159.57C29.252 161.059 27.564 163.107 26.51 165.49C25.5648 167.974 24.9561 170.574 24.7 173.22C23.7992 180.622 22.1953 187.922 19.91 195.02C19.72 195.56 19.52 196.11 19.32 196.65L18.69 198.24C18.64 198.35 18.59 198.46 18.55 198.57L18.01 199.84C17.77 200.38 17.52 200.91 17.26 201.44L39.09 208.72C39.09 208.98 39.14 209.26 39.18 209.57C39.94 214.93 39.57 220.37 40.27 225.74C40.3604 226.633 40.5655 227.51 40.88 228.35C40.3257 228.83 39.9256 229.463 39.73 230.17C39.4833 231.314 39.446 232.493 39.62 233.65C39.87 236.39 40.11 239.13 40.36 241.87C40.4783 242.866 40.4783 243.873 40.36 244.87C40.09 246.68 39.05 248.27 38.48 250C37.91 251.73 37.94 253.95 39.37 255C39.8692 255.341 40.4474 255.549 41.0496 255.603C41.6518 255.657 42.2579 255.556 42.81 255.31C43.9124 254.803 44.8865 254.055 45.66 253.12C50.05 248.24 52.02 241.65 55.43 236.02C56.3079 234.722 57.0899 233.362 57.77 231.95C58.24 230.86 58.54 229.7 58.92 228.57C59.4452 227.065 60.0733 225.598 60.8 224.18C61.21 223.37 62.8 221.42 62.44 220.52C61.88 218.97 55.89 217.61 54.44 217.13C53.515 216.717 52.4679 216.671 51.51 217C51.366 217.069 51.2315 217.156 51.11 217.26L50.6 210.65C51.49 210.57 52.37 210.46 53.24 210.31C53.24 209.07 53.21 207.82 53.15 206.56C53.15 205.42 53.1 204.27 53.07 203.12C53.01 200.32 52.95 197.52 52.88 194.77C52.8617 193.149 52.7582 191.53 52.57 189.92C52.23 187.47 51.48 185.07 51.24 182.6C51.6008 182.314 52.0268 182.121 52.48 182.04V182.04C53.1808 181.928 53.8927 181.901 54.6 181.96H55.16C58.2635 181.915 61.3035 181.075 63.99 179.52C66.74 178.09 69.29 176.3 71.99 174.83L72.99 174.3L73.37 174.11L74.01 173.79L74.54 173.54L74.66 173.48C76.25 172.72 77.86 171.98 79.4 171.15C79.5041 171.319 79.6177 171.483 79.74 171.64C80.1133 172.148 80.6289 172.534 81.2216 172.75C81.8143 172.965 82.4575 173 83.07 172.85C81.18 177.4 78.96 181.8 78.4 186.72C77.58 193.83 80.4 200.72 83.21 207.34L92.1 228.34C93.1 230.66 94.39 233.26 96.82 233.81C98.3643 234.018 99.9338 233.705 101.28 232.92C105.35 230.98 109.01 228.2 112.74 225.6L112.89 225.72C116.26 228.38 118.37 232.09 120.7 235.64L126.93 245.88C126.887 246.393 126.973 246.909 127.18 247.38C127.634 248.228 128.226 248.995 128.93 249.65C132.89 253.915 135.499 259.255 136.43 265C136.511 266.471 136.936 267.903 137.67 269.18C139.34 271.5 142.9 271.35 145.41 270.03C146.185 269.675 146.854 269.124 147.35 268.43C147.771 267.684 148.037 266.861 148.13 266.01C148.588 263.893 148.84 261.736 148.88 259.57C148.84 255.64 147.33 251.73 146.61 247.7ZM110.84 59.28C111.276 58.9927 111.697 58.6823 112.1 58.35C111.256 60.8887 109.893 63.2246 108.1 65.21V65.21C107.68 65.67 107.23 66.1 106.77 66.52V66.2C106.72 65.2 106.77 64.09 106.77 63.03C108.373 62.0773 109.759 60.8 110.84 59.28V59.28ZM75.53 138.19L75.59 138C75.9443 138.256 76.2521 138.57 76.5 138.93C76.2576 139.467 76.144 140.053 76.1683 140.642C76.1926 141.23 76.3541 141.805 76.64 142.32C77.16 143.2 78.1 144.02 77.9 145.03C77.7 146.04 76.42 146.44 75.38 146.61C74.01 146.83 72.66 147.08 71.31 147.35C71.31 147.35 71.31 147.35 71.31 147.28C71.3397 146.153 71.1878 145.029 70.86 143.95C73.19 142.95 74.63 140.57 75.53 138.19Z" fill="url(#paint0_linear_1_88)"/>
<path d="M117.15 21.77C118.048 20.251 118.595 18.551 118.753 16.7937C118.911 15.0364 118.675 13.266 118.063 11.6113C117.451 9.95655 116.477 8.45916 115.213 7.22807C113.949 5.99697 112.427 5.06313 110.757 4.49448C109.086 3.92584 107.31 3.7367 105.558 3.94082C103.805 4.14494 102.12 4.7372 100.625 5.6745C99.1305 6.61179 97.8634 7.87054 96.9162 9.35917C95.9691 10.8478 95.3657 12.5289 95.15 14.28C95.0005 15.4752 95.0377 16.6863 95.26 17.87C91.8619 19.4801 89.018 22.0624 87.0883 25.2898C85.1586 28.5172 84.23 32.2445 84.42 36C82.8125 38.4902 81.8072 41.3207 81.4839 44.2671C81.1606 47.2134 81.5282 50.1945 82.5576 52.974C83.5869 55.7536 85.2496 58.2551 87.4139 60.2802C89.5782 62.3053 92.1846 63.7984 95.0263 64.6409C97.8681 65.4835 100.867 65.6524 103.785 65.1343C106.704 64.6162 109.461 63.4253 111.839 61.656C114.217 59.8867 116.15 57.5877 117.485 54.9414C118.82 52.295 119.52 49.374 119.53 46.41C119.53 46.1 119.53 45.8 119.53 45.5C121.893 41.8674 122.949 37.5391 122.526 33.2265C122.102 28.9139 120.224 24.8737 117.2 21.77H117.15Z" fill="#46455B"/>
<g opacity="0.1">
<path opacity="0.1" d="M95.12 14.86L95.28 14.77C95.2395 14.565 95.2095 14.3581 95.19 14.15C95.1852 14.1932 95.1852 14.2368 95.19 14.28C95.1563 14.472 95.1329 14.6656 95.12 14.86V14.86Z" fill="black"/>
<path opacity="0.1" d="M122.43 34.28C122.085 37.1808 121.075 39.9628 119.48 42.41C119.48 42.71 119.48 43.01 119.48 43.31C119.457 48.2212 117.541 52.9343 114.13 56.4685C110.72 60.0026 106.078 62.0857 101.171 62.2841C96.2637 62.4825 91.469 60.781 87.7845 57.5336C84.1 54.2863 81.8097 49.7433 81.39 44.85C81.39 45.37 81.32 45.85 81.32 46.41C81.32 51.4703 83.3302 56.3234 86.9084 59.9016C90.4866 63.4798 95.3397 65.49 100.4 65.49C105.46 65.49 110.313 63.4798 113.892 59.9016C117.47 56.3234 119.48 51.4703 119.48 46.41C119.48 46.1 119.48 45.8 119.48 45.5C121.079 43.0546 122.089 40.2717 122.43 37.37C122.588 36.0927 122.611 34.8023 122.5 33.52C122.53 33.77 122.47 34.03 122.43 34.28Z" fill="black"/>
<path opacity="0.1" d="M118.72 14.14C118.51 15.7443 117.976 17.289 117.15 18.68C117.49 19.02 117.8 19.38 118.15 19.74C118.455 18.8963 118.663 18.0207 118.77 17.13C118.884 16.1354 118.867 15.1303 118.72 14.14V14.14Z" fill="black"/>
</g>
<path d="M40.27 226.47C40.3609 227.555 40.6561 228.614 41.14 229.59C41.3837 230.078 41.7405 230.5 42.1806 230.822C42.6207 231.144 43.1314 231.356 43.67 231.44C44.6589 231.446 45.6282 231.165 46.46 230.63C48.15 229.74 49.92 228.71 50.8 227.01C51.68 225.31 51.54 223.41 51.39 221.56L50.25 207.01C47.51 206.93 44.75 206.93 42 207.08C39.25 207.23 38.8 207.87 39.18 210.53C39.93 215.81 39.53 221.18 40.27 226.47Z" fill="#FBBEBE"/>
<path d="M120.89 236.3L127.42 246.86C127.704 247.476 128.217 247.957 128.85 248.2C129.317 248.27 129.795 248.186 130.21 247.96C132.324 246.853 134.181 245.312 135.66 243.44C136.844 242.338 137.743 240.966 138.28 239.44C138.492 238.594 138.484 237.708 138.256 236.866C138.028 236.024 137.589 235.254 136.98 234.63C136.224 233.957 135.403 233.361 134.53 232.85C129.36 229.36 127.03 222.74 121.93 219.16C121.645 218.92 121.299 218.764 120.93 218.71C120.552 218.737 120.186 218.861 119.87 219.07L112.87 222.89C109.87 224.54 110.8 224.74 113.1 226.52C116.45 229.14 118.53 232.8 120.89 236.3Z" fill="#FBBEBE"/>
<path d="M54.46 218.05C53.5312 217.647 52.4841 217.611 51.53 217.95C51.1069 218.207 50.7487 218.558 50.4833 218.976C50.218 219.394 50.0526 219.868 50 220.36C49.82 221.36 49.84 222.36 49.57 223.29C48.9673 224.84 47.9878 226.214 46.72 227.29C46.2421 227.855 45.6251 228.286 44.93 228.54C43.98 228.78 42.98 228.34 42.02 228.54C41.462 228.686 40.9541 228.98 40.5507 229.393C40.1473 229.805 39.8637 230.319 39.73 230.88C39.4781 232.006 39.4407 233.17 39.62 234.31L40.36 242.41C40.4815 243.406 40.4815 244.414 40.36 245.41C40.09 247.2 39.05 248.76 38.48 250.47C37.91 252.18 37.93 254.36 39.37 255.47C39.8738 255.805 40.4538 256.008 41.0567 256.061C41.6595 256.113 42.2659 256.013 42.82 255.77C43.9208 255.274 44.8952 254.536 45.67 253.61C50.07 248.81 52.04 242.3 55.46 236.76C56.3346 235.484 57.1166 234.148 57.8 232.76C58.27 231.68 58.57 230.54 58.95 229.43C59.4764 227.944 60.108 226.497 60.84 225.1C61.24 224.3 62.84 222.38 62.48 221.49C61.95 219.87 55.94 218.52 54.46 218.05Z" fill="#46455B"/>
<path d="M133.87 240.42C132.88 242.289 131.224 243.717 129.23 244.42C128.656 244.578 128.121 244.853 127.66 245.23C127.357 245.599 127.17 246.048 127.12 246.523C127.07 246.998 127.16 247.476 127.38 247.9C127.839 248.739 128.433 249.496 129.14 250.14C133.089 254.325 135.7 259.593 136.64 265.27C136.731 266.725 137.159 268.139 137.89 269.4C139.56 271.69 143.13 271.54 145.65 270.23C146.419 269.879 147.086 269.339 147.59 268.66C148.011 267.925 148.276 267.112 148.37 266.27C148.828 264.183 149.079 262.056 149.12 259.92C149.12 255.92 147.56 252.03 146.84 248.07C145.84 242.44 146.32 236.37 143.7 231.29C143.453 230.682 143.05 230.15 142.53 229.75C141.872 229.404 141.133 229.238 140.39 229.27C138.03 229.18 135.65 229.16 133.28 229.21C132.62 229.21 131.84 229.31 131.5 229.88C131.381 230.198 131.342 230.541 131.388 230.878C131.433 231.214 131.561 231.535 131.76 231.81C133.21 234.68 135.59 236.95 133.87 240.42Z" fill="#46455B"/>
<path d="M77.61 139.52C76.9488 140.068 76.5007 140.83 76.3436 141.674C76.1864 142.518 76.3303 143.391 76.75 144.14C77.28 145.01 78.22 145.82 78.01 146.82C77.8 147.82 76.53 148.2 75.49 148.37C66.31 149.83 57.37 152.52 48.49 155.2L39.15 158.01C36.4155 158.685 33.7991 159.771 31.39 161.23C29.2567 162.686 27.5678 164.704 26.51 167.06C25.5615 169.506 24.9492 172.069 24.69 174.68C23.29 184.23 21.5 193.86 17.24 202.52L39.87 209.95C42.0672 210.754 44.3432 211.324 46.66 211.65C48.8678 211.838 51.0908 211.731 53.27 211.33C53.13 206.28 53.04 201.07 52.9 196.01C52.887 194.412 52.7835 192.816 52.59 191.23C52.25 188.81 51.5 186.45 51.26 184.01C52.26 183.15 53.83 183.37 55.18 183.4C58.2869 183.358 61.3335 182.536 64.04 181.01C66.78 179.59 69.34 177.83 72.04 176.38C76.59 173.97 81.77 172.38 85.25 168.55C83.48 175.3 79.25 181.18 78.48 188.11C77.71 195.04 80.48 201.96 83.31 208.43L92.22 229.11C93.22 231.39 94.51 233.96 96.94 234.5C98.4861 234.702 100.056 234.393 101.41 233.62C109.61 229.78 116.17 222.55 124.93 220.25C124.27 215.91 120.85 212.32 118.93 208.39C117.29 205.08 116.76 201.34 115.67 197.81C114.58 194.28 112.67 190.69 109.41 189.01C107.84 188.22 105.73 187.52 105.59 185.77C105.577 185.207 105.697 184.648 105.94 184.14C107.11 181.188 108.932 178.539 111.27 176.39C111.567 176.154 111.807 175.853 111.97 175.51C112.047 175.182 112.064 174.844 112.02 174.51C111.85 171.69 113.36 169.06 115.02 166.79C116.68 164.52 118.65 162.37 119.6 159.72C121.23 155.15 119.6 150.13 118 145.56C117.474 143.664 116.562 141.897 115.32 140.37C113.22 138.13 109.96 137.48 106.9 137.14C97.05 136.02 85.46 133.43 77.61 139.52Z" fill="#46455B"/>
<g opacity="0.1">
<path opacity="0.1" d="M115.05 159.53C113.37 161.8 111.86 164.43 112.05 167.25C112.094 167.584 112.077 167.922 112 168.25C111.837 168.593 111.597 168.894 111.3 169.13C108.962 171.279 107.14 173.928 105.97 176.88C105.727 177.388 105.608 177.947 105.62 178.51C105.724 179.039 105.962 179.533 106.312 179.943C106.663 180.353 107.113 180.665 107.62 180.85C108.638 179.185 109.884 177.671 111.32 176.35C111.617 176.114 111.857 175.813 112.02 175.47C112.097 175.142 112.114 174.804 112.07 174.47C111.9 171.65 113.41 169.02 115.07 166.75C116.73 164.48 118.7 162.33 119.65 159.68C120.469 157.087 120.552 154.317 119.89 151.68C119.823 151.94 119.743 152.2 119.65 152.46C118.68 155.11 116.74 157.27 115.05 159.53Z" fill="black"/>
<path opacity="0.1" d="M76.58 140.89C76.9121 140.823 77.22 140.668 77.4716 140.441C77.7232 140.214 77.9092 139.923 78.01 139.6C78.0298 139.471 78.0298 139.339 78.01 139.21L77.58 139.52C77.1388 139.887 76.7952 140.358 76.58 140.89V140.89Z" fill="black"/>
<path opacity="0.1" d="M46.66 204.43C44.3432 204.104 42.0672 203.534 39.87 202.73L19.87 196.17C19.1142 198.338 18.2293 200.458 17.22 202.52L39.87 209.95C42.0672 210.754 44.3432 211.324 46.66 211.65C48.8678 211.838 51.0908 211.731 53.27 211.33C53.2 208.96 53.15 206.55 53.09 204.14C50.9684 204.516 48.8068 204.614 46.66 204.43V204.43Z" fill="black"/>
<path opacity="0.1" d="M101.44 226.4C100.086 227.173 98.5161 227.482 96.97 227.28C94.54 226.74 93.23 224.17 92.25 221.89L83.34 201.21C81.34 196.66 79.39 191.93 78.67 187.08C78.61 187.42 78.56 187.76 78.51 188.08C77.7 195.08 80.51 201.93 83.34 208.4L92.25 229.08C93.25 231.36 94.54 233.93 96.97 234.47C98.5161 234.672 100.086 234.363 101.44 233.59C109.64 229.75 116.2 222.52 124.96 220.22C124.504 217.949 123.589 215.795 122.27 213.89C114.81 216.82 108.78 222.95 101.44 226.4Z" fill="black"/>
<path opacity="0.1" d="M85.28 161.33C81.8 165.13 76.62 166.75 72.07 169.16C69.34 170.61 66.78 172.37 64.07 173.79C61.3642 175.319 58.3177 176.144 55.21 176.19C53.86 176.19 52.34 175.93 51.29 176.79C51.51 179.04 52.16 181.23 52.53 183.46C53.4183 183.34 54.3172 183.32 55.21 183.4C58.3169 183.358 61.3634 182.536 64.07 181.01C66.81 179.59 69.37 177.83 72.07 176.38C75.07 174.79 78.34 173.55 81.22 171.79C82.8199 168.404 84.1767 164.909 85.28 161.33V161.33Z" fill="black"/>
</g>
<path d="M93.22 67.95C93.3302 69.0766 93.1801 70.2134 92.7813 71.2727C92.3825 72.3321 91.7457 73.2857 90.92 74.06C90.37 74.53 89.72 74.88 89.19 75.37C88.7135 75.8577 88.3491 76.4434 88.1222 77.0864C87.8952 77.7293 87.8112 78.414 87.8759 79.0927C87.9407 79.7715 88.1526 80.4279 88.497 81.0164C88.8414 81.6049 89.3099 82.1111 89.87 82.5C91.67 83.6 93.96 83.3 96.04 82.94C98.8135 82.5573 101.532 81.849 104.14 80.83C106.764 79.8016 108.997 77.9713 110.52 75.6C109.425 74.901 108.52 73.9414 107.887 72.807C107.253 71.6727 106.911 70.3991 106.89 69.1C106.75 66.51 107.46 63.57 105.82 61.56C104.18 59.55 101.27 59.64 98.82 60.3C97.61 60.64 96.44 61.1 95.23 61.43C94.61 61.59 92.59 61.6 92.23 62.05C91.53 62.87 93.15 66.64 93.22 67.95Z" fill="#FBBEBE"/>
<path opacity="0.1" d="M93.22 67.95C93.3302 69.0766 93.1801 70.2134 92.7813 71.2727C92.3825 72.3321 91.7457 73.2857 90.92 74.06C90.37 74.53 89.72 74.88 89.19 75.37C88.7135 75.8577 88.3491 76.4434 88.1222 77.0864C87.8952 77.7293 87.8112 78.414 87.8759 79.0927C87.9407 79.7715 88.1526 80.4279 88.497 81.0164C88.8414 81.6049 89.3099 82.1111 89.87 82.5C91.67 83.6 93.96 83.3 96.04 82.94C98.8135 82.5573 101.532 81.849 104.14 80.83C106.764 79.8016 108.997 77.9713 110.52 75.6C109.425 74.901 108.52 73.9414 107.887 72.807C107.253 71.6727 106.911 70.3991 106.89 69.1C106.75 66.51 107.46 63.57 105.82 61.56C104.18 59.55 101.27 59.64 98.82 60.3C97.61 60.64 96.44 61.1 95.23 61.43C94.61 61.59 92.59 61.6 92.23 62.05C91.53 62.87 93.15 66.64 93.22 67.95Z" fill="black"/>
<path d="M100.17 67.81C107.576 67.81 113.58 61.8061 113.58 54.4C113.58 46.9939 107.576 40.99 100.17 40.99C92.7639 40.99 86.76 46.9939 86.76 54.4C86.76 61.8061 92.7639 67.81 100.17 67.81Z" fill="#FBBEBE"/>
<path d="M57.83 157.26C57.5941 158.328 57.1672 159.344 56.57 160.26C55.0017 163.036 54.4367 166.267 54.97 169.41C55.2508 170.968 55.9115 172.433 56.8935 173.675C57.8755 174.917 59.1486 175.897 60.6 176.53C61.2061 176.832 61.8813 176.969 62.5572 176.927C63.2332 176.885 63.8861 176.665 64.45 176.29C62.66 173.96 62.56 170.78 62.67 167.84C62.6384 167.292 62.767 166.746 63.04 166.27C63.1151 166.158 63.2119 166.063 63.3248 165.989C63.4377 165.916 63.5642 165.866 63.6968 165.843C63.8294 165.819 63.9653 165.823 64.0965 165.853C64.2276 165.884 64.3513 165.941 64.46 166.02C64.4101 167.872 64.7686 169.712 65.51 171.41C65.79 172.06 66.27 172.78 66.99 172.76C67.99 172.76 68.28 171.35 68.24 170.33C68.09 166.17 67.88 161.84 65.88 158.2C64.9999 156.952 64.3248 155.571 63.88 154.11C63.8649 153.59 63.6826 153.088 63.36 152.68C63.1408 152.506 62.8839 152.386 62.61 152.33C61.46 152 58.72 150.99 57.77 152.07C56.82 153.15 58.01 155.88 57.83 157.26Z" fill="#FBBEBE"/>
<path d="M77.74 86.03C76.2 85.85 74.99 87.26 74.15 88.56C71.0076 93.398 68.7461 98.7539 67.47 104.38C66.82 107.25 66.42 110.23 65.05 112.84C64.7243 113.383 64.4594 113.959 64.26 114.56C64.1496 115.482 64.1094 116.412 64.14 117.34C64 119.01 63.01 120.5 62.68 122.15C62.48 123.15 62.52 124.15 62.34 125.15C62.04 126.87 61.09 128.41 60.48 130.06C59.41 132.96 59.42 136.14 58.63 139.13C58.5339 139.62 58.3212 140.08 58.01 140.47C57.48 141.06 56.62 141.2 55.93 141.58C55.3799 141.916 54.908 142.365 54.5458 142.898C54.1836 143.431 53.9395 144.035 53.83 144.67C53.6216 145.94 53.598 147.233 53.76 148.51L54.38 156.44C55.01 156.17 55.38 155.44 55.96 155.01C56.96 154.21 58.35 154.39 59.59 154.61L61.4 154.94C63.25 155.27 65.26 155.7 66.4 157.16C67.34 155.68 66.81 153.51 68.25 152.53C68.72 152.21 69.31 152.11 69.8 151.83C70.267 151.527 70.6543 151.117 70.9293 150.633C71.2043 150.149 71.3589 149.606 71.38 149.05C71.4096 147.936 71.2576 146.825 70.93 145.76C73.25 144.76 74.69 142.43 75.6 140.08C76.5962 137.235 77.3195 134.302 77.76 131.32C79.85 119.53 81.76 107.66 81.96 95.69C82.0918 93.6905 81.8718 91.6834 81.31 89.76C80.69 87.86 79.73 86.25 77.74 86.03Z" fill="#6C63FF"/>
<path opacity="0.1" d="M77.74 86.03C76.2 85.85 74.99 87.26 74.15 88.56C71.0076 93.398 68.7461 98.7539 67.47 104.38C66.82 107.25 66.42 110.23 65.05 112.84C64.7243 113.383 64.4594 113.959 64.26 114.56C64.1496 115.482 64.1094 116.412 64.14 117.34C64 119.01 63.01 120.5 62.68 122.15C62.48 123.15 62.52 124.15 62.34 125.15C62.04 126.87 61.09 128.41 60.48 130.06C59.41 132.96 59.42 136.14 58.63 139.13C58.5339 139.62 58.3212 140.08 58.01 140.47C57.48 141.06 56.62 141.2 55.93 141.58C55.3799 141.916 54.908 142.365 54.5458 142.898C54.1836 143.431 53.9395 144.035 53.83 144.67C53.6216 145.94 53.598 147.233 53.76 148.51L54.38 156.44C55.01 156.17 55.38 155.44 55.96 155.01C56.96 154.21 58.35 154.39 59.59 154.61L61.4 154.94C63.25 155.27 65.26 155.7 66.4 157.16C67.34 155.68 66.81 153.51 68.25 152.53C68.72 152.21 69.31 152.11 69.8 151.83C70.267 151.527 70.6543 151.117 70.9293 150.633C71.2043 150.149 71.3589 149.606 71.38 149.05C71.4096 147.936 71.2576 146.825 70.93 145.76C73.25 144.76 74.69 142.43 75.6 140.08C76.5962 137.235 77.3195 134.302 77.76 131.32C79.85 119.53 81.76 107.66 81.96 95.69C82.0918 93.6905 81.8718 91.6834 81.31 89.76C80.69 87.86 79.73 86.25 77.74 86.03Z" fill="black"/>
<path d="M111.53 73.19C109.317 75.5103 106.491 77.1541 103.38 77.93C100.282 78.6938 97.1171 79.1593 93.93 79.32C92.951 79.4793 91.9477 79.3934 91.01 79.07C90.5484 78.8918 90.1692 78.5489 89.9458 78.1075C89.7223 77.6661 89.6703 77.1575 89.8 76.68C89.97 76.3928 90.0885 76.078 90.15 75.75C90.15 74.93 88.93 74.86 88.15 75.1C82.99 76.7 78.04 79.86 75.66 84.71C74.4587 87.5212 73.7094 90.5047 73.44 93.55C72.32 101.55 71.2 109.62 72.7 117.55C73.51 121.76 75.05 125.85 75.14 130.13C75.2 132.53 74.79 134.92 74.81 137.32C74.7416 138.16 74.9679 138.998 75.45 139.69C75.82 140.12 76.38 140.39 76.64 140.9C77.07 141.74 76.49 142.9 77.06 143.67C77.77 144.61 79.23 143.93 80.2 143.27C85.0655 139.968 90.9413 138.491 96.79 139.1C103.79 139.85 110.79 143.6 117.61 141.72C117.258 141.211 116.957 140.668 116.71 140.1C113.31 128.94 113.54 116.45 118.63 105.95C120.36 102.36 122.63 98.95 123.33 95.01C123.599 93.1712 123.622 91.3049 123.4 89.46C123.163 85.8634 122.084 82.3729 120.25 79.27C118.32 76.2 115.11 73.55 111.53 73.19Z" fill="#6C63FF"/>
<path d="M79.1 160.71C78.5577 162.171 78.2964 163.722 78.33 165.28C78.2832 166.767 78.3568 168.255 78.55 169.73C78.6672 170.993 79.1195 172.201 79.86 173.23C80.2365 173.737 80.7549 174.12 81.3494 174.332C81.944 174.544 82.588 174.574 83.2 174.42C83.6787 174.218 84.1065 173.913 84.4524 173.525C84.7983 173.138 85.0537 172.678 85.2 172.18C85.4879 171.177 85.7018 170.154 85.84 169.12C86.42 166.12 88.02 163.22 88.05 160.12C88.0702 159.752 88.0123 159.384 87.88 159.04C87.3 157.77 84.45 156.34 83.06 156.55C81.34 156.82 79.74 159.24 79.1 160.71Z" fill="#FBBEBE"/>
<path opacity="0.1" d="M117.79 84.51C117.53 87.18 120.11 89.19 121.13 91.66C121.543 92.818 121.779 94.0316 121.83 95.26C122.55 103.79 121.99 112.36 121.43 120.89C121.348 123.731 121.014 126.559 120.43 129.34C118.99 135.17 115.43 140.23 111.98 145.13C111.458 145.933 110.851 146.677 110.17 147.35C109.152 148.175 108.021 148.849 106.81 149.35L94.91 155.12C93.4178 155.778 91.9999 156.592 90.68 157.55C89.1474 158.75 87.9433 160.319 87.18 162.11C84.87 160.93 82.47 159.87 80.18 158.69C79.64 158.41 79.03 158.05 78.94 157.45C78.82 156.65 79.66 156.08 80.24 155.45C81.32 154.38 81.65 152.79 82.24 151.39C84.16 146.79 88.97 143.85 90.71 139.19C91.38 137.4 91.58 135.37 92.77 133.87C93.4474 133.118 94.2091 132.447 95.04 131.87C96.8643 130.314 98.5384 128.59 100.04 126.72C100.721 126.015 101.279 125.2 101.69 124.31C102.071 122.938 102.203 121.509 102.08 120.09C102.17 115.43 104.28 111.09 105.57 106.61C106.78 102.4 107.29 97.98 108.88 93.89C110.47 89.8 113.53 85.61 117.79 84.51Z" fill="black"/>
<path d="M119.34 84.51C119.08 87.18 121.65 89.19 122.67 91.66C123.086 92.8175 123.326 94.0312 123.38 95.26C124.09 103.79 123.54 112.36 122.98 120.89C122.882 123.732 122.53 126.56 121.93 129.34C120.49 135.17 116.93 140.23 113.48 145.13C112.958 145.933 112.351 146.677 111.67 147.35C110.652 148.175 109.521 148.849 108.31 149.35L96.4 155.12C94.91 155.782 93.4925 156.596 92.17 157.55C90.6402 158.753 89.4367 160.321 88.67 162.11C86.36 160.93 83.97 159.87 81.67 158.69C81.13 158.41 80.52 158.05 80.43 157.45C80.3 156.65 81.14 156.08 81.72 155.45C82.81 154.38 83.14 152.79 83.72 151.39C85.63 146.79 90.45 143.85 92.19 139.19C92.86 137.4 93.06 135.37 94.25 133.87C94.9227 133.114 95.685 132.442 96.52 131.87C98.3443 130.314 100.018 128.59 101.52 126.72C102.201 126.015 102.759 125.2 103.17 124.31C103.546 122.937 103.678 121.509 103.56 120.09C103.65 115.43 105.75 111.09 107.04 106.61C108.26 102.4 108.76 97.98 110.35 93.89C111.94 89.8 115.1 85.61 119.34 84.51Z" fill="#6C63FF"/>
<path d="M106.81 33.67C102.68 33.1682 98.4993 34.036 94.91 36.14C95.44 36.14 95.97 36.14 96.5 36.26C100.467 36.7394 104.184 38.4524 107.125 41.1573C110.067 43.8621 112.085 47.4223 112.895 51.3356C113.705 55.2488 113.266 59.3176 111.639 62.9677C110.013 66.6179 107.281 69.6653 103.83 71.68C108.733 71.8369 113.509 70.0991 117.164 66.8276C120.82 63.556 123.075 59.002 123.461 54.1114C123.847 49.2208 122.335 44.3694 119.238 40.5647C116.141 36.76 111.697 34.2944 106.83 33.68L106.81 33.67Z" fill="#46455B"/>
<path d="M112.68 44.28C113.145 45.3285 113.397 46.4585 113.423 47.605C113.448 48.7515 113.247 49.8917 112.83 50.96C112.74 50.69 112.64 50.42 112.52 50.15C110.16 44.9 102.9 42.73 96.29 45.3C94.5327 45.924 92.9269 46.9119 91.5776 48.1992C90.2283 49.4864 89.166 51.044 88.46 52.77C86.78 47.69 90.19 41.87 96.46 39.43C103.06 36.86 110.32 39.03 112.68 44.28Z" fill="#46455B"/>
<g opacity="0.1">
<path opacity="0.1" d="M112.72 50.55C112.416 46.8667 111.05 43.3507 108.786 40.4288C106.523 37.507 103.46 35.305 99.97 34.09C98.1958 34.5096 96.4916 35.1832 94.91 36.09C95.44 36.09 95.97 36.09 96.5 36.21C100.339 36.6741 103.945 38.2941 106.842 40.8551C109.739 43.4161 111.789 46.7972 112.72 50.55V50.55Z" fill="black"/>
<path opacity="0.1" d="M115.81 36.62C115.504 32.9374 114.136 29.4226 111.873 26.5012C109.611 23.5798 106.549 21.3771 103.06 20.16C101.284 20.6031 99.5804 21.2968 98 22.22C98.53 22.22 99.06 22.22 99.6 22.34C103.43 22.8005 107.029 24.4121 109.923 26.9617C112.818 29.5114 114.87 32.8791 115.81 36.62V36.62Z" fill="black"/>
<path opacity="0.1" d="M115.89 15.83C115.698 13.6167 114.87 11.5061 113.506 9.75298C112.141 7.99983 110.299 6.67905 108.2 5.95001C107.126 6.2106 106.095 6.62488 105.14 7.18002C105.46 7.18002 105.78 7.18001 106.14 7.26001C108.439 7.54046 110.6 8.50865 112.34 10.0378C114.079 11.567 115.317 13.5858 115.89 15.83V15.83Z" fill="black"/>
<path opacity="0.1" d="M123.03 47.95C123.398 52.5252 122.107 57.0801 119.393 60.7818C116.68 64.4835 112.724 67.0848 108.25 68.11C106.961 69.5091 105.472 70.7089 103.83 71.67C106.789 71.778 109.732 71.1961 112.426 69.9702C115.121 68.7443 117.494 66.9082 119.356 64.6071C121.219 62.306 122.521 59.603 123.158 56.7119C123.796 53.8209 123.752 50.8211 123.03 47.95Z" fill="black"/>
</g>
<path d="M292.22 247.66C290.997 246.649 289.481 246.062 287.896 245.984C286.312 245.907 284.745 246.344 283.43 247.23C281.43 248.71 280.56 251.17 279.74 253.49C278.54 256.92 276.6 260.25 276.28 263.88C275.39 273.88 268.38 282.29 266.28 292.09C265.51 295.59 265.36 299.27 263.91 302.54C263.216 303.975 262.413 305.356 261.51 306.67C257.994 312.198 254.981 318.032 252.51 324.1C250.77 324.63 249.34 326.3 247.95 327.63C246.167 329.335 244.034 330.632 241.7 331.43C240.748 331.643 239.861 332.078 239.11 332.7C238.11 333.76 238.11 335.47 237.28 336.7C236.69 337.506 235.906 338.149 235 338.57C234.939 338.286 234.892 337.999 234.86 337.71C234.65 336.18 234.48 334.65 234.32 333.12C236.648 329.722 237.69 325.606 237.257 321.51C236.825 317.414 234.947 313.606 231.96 310.77C231.775 308.383 231.845 305.982 232.17 303.61C232.317 303.039 232.302 302.439 232.125 301.877C231.948 301.315 231.617 300.813 231.17 300.43C230.68 300.12 230.08 300.05 229.56 299.79C228.806 299.284 228.166 298.627 227.68 297.86C226.275 296.268 224.351 295.224 222.251 294.913C220.15 294.601 218.006 295.043 216.2 296.16C213.4 298.03 211.92 301.35 209.53 303.74C208.29 304.97 206.82 305.94 205.59 307.17C203.13 309.807 201.532 313.132 201.01 316.7C200.497 320.249 200.353 323.841 200.58 327.42C200.555 328.505 200.711 329.586 201.04 330.62C201.397 331.468 201.89 332.252 202.5 332.94C205.43 336.762 209.303 339.757 213.74 341.63C213.771 341.842 213.788 342.056 213.79 342.27C213.79 342.6 213.79 342.93 213.71 343.27L213.22 343.19C211.42 342.97 209.52 343.19 207.85 342.5C205 341.27 203.85 337.65 201.04 336.23C200.807 336.107 200.562 336.007 200.31 335.93C199.644 331.269 198.271 326.737 196.24 322.49C195.24 320.49 194.11 318.41 193.99 316.15C194.052 314.049 194.524 311.98 195.38 310.06C197.64 303.191 199.425 296.174 200.72 289.06C201.627 284.6 202.54 280.14 203.46 275.68C204.701 274.551 205.797 273.271 206.72 271.87C208.647 269.083 209.774 265.822 209.98 262.44C210.069 260.753 209.824 259.066 209.257 257.475C208.691 255.884 207.815 254.421 206.68 253.17C206.179 252.56 205.553 252.066 204.843 251.721C204.134 251.376 203.359 251.188 202.57 251.17C201.89 251.25 201.234 251.469 200.642 251.813C200.051 252.157 199.536 252.619 199.13 253.17C197.908 254.88 197.026 256.808 196.53 258.85C195.53 262.17 194.53 265.63 194.98 269.07C195.39 271.92 196.78 275.01 195.36 277.51C190.68 285.7 187.45 294.91 183.98 303.69C183.085 305.797 182.356 307.97 181.8 310.19C181.105 313.768 180.984 317.434 181.44 321.05C182.263 327.831 183.57 334.545 185.35 341.14C186.08 344.14 186.94 347.31 188.66 349.78C188.05 353.131 187.902 356.549 188.22 359.94C188.261 360.724 188.465 361.49 188.82 362.19C189.394 362.995 190.089 363.707 190.88 364.3C191.953 365.298 192.8 366.514 193.364 367.866C193.928 369.218 194.196 370.676 194.15 372.14C194.198 374.878 194.73 377.587 195.72 380.14C198.11 387.27 200.51 394.4 202.6 401.63C203.053 402.968 203.303 404.367 203.34 405.78C203.34 407.78 202.39 409.78 202.83 411.78C203.165 412.684 203.439 413.609 203.65 414.55C203.666 415.277 203.572 416.002 203.37 416.7C202.07 422.35 198.31 435.38 198.96 441.15L200.25 440.7C199.7 448.34 197.34 455.82 196.48 463.46C195.915 469.023 195.975 474.631 196.66 480.18C197.033 482.66 197.247 485.162 197.3 487.67C197.3 489.92 196.94 492.14 196.85 494.38C196.805 497.389 196.982 500.397 197.38 503.38C197.772 508.06 198.517 512.703 199.61 517.27C201.69 525.03 200.29 533.11 200.52 541.15C200.788 546.759 200.732 552.378 200.35 557.98C200.14 560.35 199.81 562.71 199.74 565.09C199.53 572.15 201.62 579.18 200.88 586.2C200.53 589.49 199.69 593.2 201.76 595.79C202.42 596.6 203.31 597.18 204.01 597.95C204.391 598.308 204.671 598.759 204.824 599.259C204.976 599.759 204.996 600.29 204.88 600.8C204.61 601.59 203.88 602.17 203.71 603C203.52 604.3 204.95 605.2 206.19 605.62L206.54 605.72C206.514 606.154 206.58 606.588 206.733 606.995C206.887 607.402 207.124 607.771 207.43 608.08C208.205 608.672 209.129 609.039 210.1 609.14L226.1 612.24C229.67 612.93 233.55 613.58 236.9 612.37C237.029 612.854 237.289 613.293 237.65 613.64C238.423 614.231 239.343 614.597 240.31 614.7L256.31 617.8C260.39 618.59 264.87 619.32 268.51 617.3C269.559 616.74 270.445 615.916 271.08 614.91C271.591 613.957 271.887 612.903 271.947 611.824C272.008 610.744 271.831 609.664 271.43 608.66C271.123 607.631 270.501 606.725 269.65 606.07C268.515 605.446 267.222 605.168 265.93 605.27C264.834 605.35 263.733 605.182 262.71 604.78C262.396 604.615 262.123 604.383 261.91 604.1C262.71 603.1 263.48 602.1 264.21 601.1C263.52 600.94 263.21 599.99 263.04 599.29C260.98 588.91 263.87 578.29 264.29 567.69C264.503 562.383 264.087 557.069 263.05 551.86C262.66 549.86 262.19 547.96 261.91 545.98C260.44 535.65 264.37 525.16 263.12 514.8C262.53 509.96 264.61 504.9 265.35 500.08C266 495.8 265.58 491.44 265.16 487.08L261.85 453.08C261.4 448.49 260.93 443.79 258.97 439.61C257.991 437.273 257.527 434.752 257.61 432.22C261.61 429.93 265.29 426.78 269.81 426.77C270.68 423.47 268.18 413.06 266.72 409.98C261.025 397.837 258.773 384.364 260.21 371.03C260.74 366.24 258.83 361.41 259.47 356.63C259.566 355.51 259.878 354.42 260.39 353.42C260.648 352.924 261.027 352.502 261.492 352.193C261.957 351.883 262.493 351.697 263.05 351.65C262.77 348.78 262.4 345.89 261.91 343.02C263.556 341.341 264.908 339.397 265.91 337.27C267.99 332.92 268.91 328.12 270.12 323.46C272.32 315.25 275.68 307.41 278.34 299.35C281 291.29 280.48 282.77 282.39 274.49C283.468 269.928 286.262 265.957 290.19 263.4C291.71 262.4 293.44 261.63 294.49 260.15C295.281 258.933 295.699 257.511 295.69 256.06C295.78 254.489 295.515 252.918 294.914 251.464C294.313 250.01 293.392 248.709 292.22 247.66V247.66ZM231.1 597.54C231.4 597.13 231.69 596.72 231.96 596.29C230.9 596.23 229.56 595.61 229.43 594.55C229.398 593.489 229.516 592.428 229.78 591.4C230.081 589.562 229.969 587.679 229.45 585.89C229.08 584.65 228.53 583.46 228.13 582.22C227.739 580.836 227.428 579.43 227.2 578.01C226.22 572.931 224.694 567.972 222.65 563.22C220.65 558.61 222.2 553.58 222.22 548.55C222.22 546.18 221.86 543.76 222.46 541.46C222.81 540.1 223.46 538.84 223.83 537.46C224.65 534.29 223.62 530.96 222.61 527.85C226.56 518.51 227.09 507.85 227.9 497.69C228.353 492.01 228.807 486.343 229.26 480.69C229.46 478.16 229.69 475.53 231.02 473.37C233.382 480.592 234.791 488.093 235.21 495.68C235.252 497.873 235.506 500.056 235.97 502.2C236.6 504.57 237.83 506.72 238.65 509.02C240.47 514.08 240.28 519.61 241.1 524.92C241.43 527.07 241.93 529.19 242.25 531.34C243.63 540.83 241.4 550.44 239.18 559.77C237.82 565.49 238.04 571.82 237.73 577.69C237.44 583.32 237.14 588.95 237.28 594.59C237.28 596.31 237.39 598.07 237.37 599.82C236.826 599.755 236.278 599.725 235.73 599.73C234.634 599.81 233.533 599.642 232.51 599.24C231.877 598.832 231.384 598.238 231.1 597.54V597.54Z" fill="url(#paint1_linear_1_88)"/>
<path d="M265.98 605.34C267.27 605.241 268.562 605.515 269.7 606.13C270.546 606.786 271.167 607.687 271.48 608.71C271.879 609.708 272.054 610.782 271.991 611.855C271.929 612.928 271.632 613.975 271.12 614.92C270.484 615.92 269.598 616.737 268.55 617.29C264.91 619.29 260.43 618.58 256.35 617.8L240.35 614.73C239.386 614.646 238.463 614.3 237.68 613.73C237.194 613.196 236.887 612.523 236.803 611.805C236.719 611.088 236.861 610.362 237.21 609.73C237.908 608.468 238.948 607.428 240.21 606.73C244.81 603.87 250.21 602.73 255.49 602.12C257.49 601.88 259.36 601.24 260.86 602.63C261.66 603.36 261.62 604.27 262.74 604.86C263.771 605.257 264.878 605.421 265.98 605.34Z" fill="#3F3D56"/>
<path d="M235.75 599.84C237.037 599.741 238.325 600.015 239.46 600.63C240.311 601.28 240.935 602.183 241.24 603.21C241.643 604.207 241.821 605.281 241.761 606.354C241.7 607.428 241.403 608.475 240.89 609.42C240.251 610.418 239.366 611.234 238.32 611.79C234.68 613.79 230.2 613.08 226.11 612.3L210.11 609.22C209.145 609.136 208.222 608.791 207.44 608.22C206.952 607.687 206.644 607.014 206.558 606.297C206.472 605.58 206.612 604.853 206.96 604.22C207.679 602.957 208.735 601.918 210.01 601.22C214.6 598.37 220.01 597.27 225.29 596.62C227.29 596.37 229.16 595.74 230.66 597.12C231.45 597.85 231.42 598.76 232.53 599.35C233.554 599.751 234.654 599.918 235.75 599.84V599.84Z" fill="#3F3D56"/>
<path d="M231.81 429.84C222.561 429.878 213.327 430.583 204.18 431.95C203.575 432.006 202.984 432.161 202.43 432.41C200.49 433.41 200.43 436.13 200.48 438.31C200.61 447.18 197.58 455.77 196.58 464.57C196.007 470.095 196.064 475.668 196.75 481.18C197.113 483.648 197.327 486.136 197.39 488.63C197.39 490.85 197.02 493.06 196.93 495.29C196.884 498.265 197.057 501.24 197.45 504.19C197.842 508.84 198.587 513.453 199.68 517.99C201.75 525.7 200.35 533.73 200.57 541.71C200.837 547.282 200.773 552.865 200.38 558.43C200.17 560.79 199.84 563.13 199.77 565.5C199.56 572.5 201.64 579.5 200.9 586.5C200.55 589.76 199.7 593.5 201.77 596.02C202.43 596.82 203.32 597.4 204.01 598.17C204.388 598.524 204.667 598.97 204.821 599.464C204.975 599.958 204.999 600.484 204.89 600.99C204.61 601.78 203.84 602.36 203.72 603.18C203.52 604.47 204.95 605.37 206.19 605.78C210.913 607.229 215.979 607.109 220.628 605.438C225.277 603.767 229.26 600.635 231.98 596.51C230.92 596.45 229.58 595.83 229.45 594.78C229.418 593.725 229.536 592.672 229.8 591.65C230.107 589.825 229.994 587.955 229.47 586.18C229.11 584.94 228.55 583.76 228.16 582.53C227.77 581.156 227.459 579.76 227.23 578.35C226.256 573.299 224.734 568.37 222.69 563.65C220.69 559.07 222.25 554.07 222.27 549.09C222.27 546.73 221.92 544.32 222.51 542.04C222.86 540.68 223.51 539.43 223.89 538.04C224.71 534.89 223.68 531.59 222.67 528.5C226.67 519.22 227.17 508.58 227.98 498.5L229.35 481.5C229.55 478.99 229.79 476.37 231.11 474.23C233.472 481.401 234.881 488.852 235.3 496.39C235.333 498.573 235.584 500.747 236.05 502.88C236.68 505.22 237.9 507.36 238.73 509.65C240.54 514.65 240.35 520.16 241.17 525.44C241.5 527.58 241.99 529.68 242.31 531.82C243.69 541.25 241.45 550.82 239.22 560.07C237.86 565.75 238.07 572.07 237.76 577.88C237.46 583.47 237.16 589.06 237.3 594.66C237.42 599.81 237.82 605.34 235.05 609.66C238.15 611.24 241.35 612.85 244.81 613.15C248.836 613.364 252.809 612.161 256.04 609.75C259.238 607.344 262.018 604.428 264.27 601.12C263.57 600.96 263.27 600.01 263.1 599.32C261.04 589.01 263.94 578.42 264.37 567.92C264.582 562.65 264.169 557.373 263.14 552.2C262.75 550.2 262.27 548.31 261.99 546.35C260.54 536.09 264.47 525.66 263.23 515.35C262.65 510.53 264.73 505.51 265.47 500.71C266.12 496.46 265.71 492.13 265.29 487.85L262 454.1C261.56 449.53 261.09 444.86 259.13 440.71C256.79 435.71 258.24 429.55 257.99 424.04C249.73 427.676 240.833 429.647 231.81 429.84V429.84Z" fill="#46455B"/>
<path d="M251.13 329.89C253.852 322.457 257.387 315.347 261.67 308.69C262.573 307.383 263.376 306.009 264.07 304.58C265.53 301.34 265.68 297.68 266.45 294.2C268.6 284.46 275.62 276.1 276.52 266.2C276.84 262.59 278.78 259.28 279.99 255.87C280.8 253.56 281.72 251.12 283.68 249.65C284.996 248.772 286.559 248.34 288.139 248.415C289.719 248.491 291.234 249.071 292.46 250.07C293.657 251.106 294.599 252.403 295.214 253.862C295.83 255.32 296.102 256.9 296.01 258.48C296.014 259.921 295.597 261.332 294.81 262.54C293.75 264.01 292.03 264.8 290.51 265.77C286.59 268.297 283.793 272.236 282.7 276.77C280.78 285 281.3 293.45 278.63 301.46C275.96 309.47 272.63 317.27 270.4 325.46C269.15 330.09 268.26 334.86 266.17 339.18C264.08 343.5 260.53 347.4 255.86 348.51C255.566 345.536 254.796 342.63 253.58 339.9C252.18 336.74 249.95 333.1 251.13 329.89Z" fill="#A0616A"/>
<path d="M200.82 341.3C200.434 335.457 198.926 329.743 196.38 324.47C195.38 322.47 194.26 320.47 194.14 318.18C194.201 316.092 194.673 314.036 195.53 312.13C197.794 305.292 199.582 298.305 200.88 291.22L203.64 277.92C204.875 276.799 205.967 275.529 206.89 274.14C208.82 271.377 209.952 268.135 210.16 264.77C210.252 263.092 210.009 261.412 209.444 259.829C208.879 258.245 208.004 256.791 206.87 255.55C206.363 254.952 205.734 254.469 205.025 254.135C204.316 253.8 203.544 253.621 202.76 253.61C202.08 253.69 201.424 253.909 200.832 254.253C200.241 254.597 199.726 255.059 199.32 255.61C198.118 257.296 197.253 259.197 196.77 261.21C195.77 264.51 194.77 267.94 195.21 271.36C195.61 274.19 197.01 277.26 195.58 279.74C190.89 287.89 187.66 297.03 184.18 305.74C183.29 307.834 182.564 309.994 182.01 312.2C181.308 315.757 181.18 319.403 181.63 323C182.449 329.752 183.752 336.436 185.53 343C186.53 347.12 187.78 351.6 191.24 354.07C194.09 349.51 196.97 345.04 200.82 341.3Z" fill="#A0616A"/>
<path d="M220.33 342.45C229.813 342.45 237.5 334.763 237.5 325.28C237.5 315.797 229.813 308.11 220.33 308.11C210.847 308.11 203.16 315.797 203.16 325.28C203.16 334.763 210.847 342.45 220.33 342.45Z" fill="#A0616A"/>
<path d="M213.92 344.11C213.82 347.24 212.46 350.17 211.12 353.01C210.31 354.72 209.25 356.63 207.4 357.01C212.607 359.093 218.011 360.644 223.53 361.64C225.419 362.064 227.365 362.175 229.29 361.97C230.909 361.681 232.463 361.105 233.88 360.27C236.988 358.508 239.654 356.061 241.675 353.116C243.697 350.17 245.022 346.803 245.55 343.27C243.432 343.547 241.29 343.604 239.16 343.44C237.955 343.473 236.783 343.039 235.89 342.23C235.327 341.446 235.007 340.514 234.97 339.55C234.59 336.71 234.287 333.863 234.06 331.01C229.837 331.174 225.682 332.127 221.81 333.82C220.21 334.52 218.65 335.33 217 335.93C216 336.29 213.11 336.36 212.41 337.01C211.33 338.04 213.98 341.95 213.92 344.11Z" fill="#A0616A"/>
<path d="M222.53 353.71C222.109 351.487 221 349.452 219.36 347.892C217.72 346.333 215.632 345.328 213.39 345.02C211.59 344.81 209.69 345.02 208.02 344.35C205.17 343.12 203.97 339.53 201.21 338.12C198.45 336.71 194.87 338.02 192.83 340.38C190.79 342.74 189.93 345.95 189.31 348.95C188.348 353.11 188.035 357.394 188.38 361.65C188.428 362.431 188.635 363.193 188.99 363.89C189.563 364.69 190.254 365.398 191.04 365.99C192.112 366.976 192.959 368.181 193.523 369.524C194.087 370.866 194.356 372.314 194.31 373.77C194.345 376.509 194.874 379.219 195.87 381.77C198.26 388.85 200.66 395.94 202.74 403.12C203.194 404.448 203.444 405.837 203.48 407.24C203.43 409.24 202.48 411.24 202.97 413.19C203.296 414.089 203.567 415.008 203.78 415.94C203.797 416.663 203.702 417.385 203.5 418.08C202.19 423.7 198.43 436.64 199.08 442.37C207.61 439.23 220.48 437.37 229.52 436.37C232.006 436.084 234.507 435.937 237.01 435.93C243.01 435.93 249.3 437.06 254.9 434.86C260.09 432.86 264.4 428.04 269.98 428.02C270.85 424.75 268.35 414.41 266.9 411.35C261.212 399.298 258.969 385.908 260.42 372.66C260.94 367.9 259.04 363.1 259.69 358.35C259.782 357.238 260.092 356.154 260.6 355.16C260.863 354.666 261.244 354.245 261.71 353.936C262.177 353.627 262.713 353.439 263.27 353.39C262.605 345.943 261.147 338.588 258.92 331.45C258.11 328.91 256.65 325.97 253.99 325.8C251.59 325.64 249.82 327.8 248.09 329.49C246.304 331.184 244.172 332.471 241.84 333.26C240.885 333.471 239.993 333.906 239.24 334.53C238.24 335.58 238.24 337.29 237.41 338.53C235.97 340.75 232.29 340.96 231.41 343.44C231.225 344.169 231.095 344.911 231.02 345.66C230.611 347.12 229.792 348.432 228.66 349.44C227.003 351.35 224.896 352.817 222.53 353.71V353.71Z" fill="#2F2E41"/>
<path d="M232.32 305.69C232.467 305.124 232.452 304.528 232.275 303.971C232.098 303.413 231.767 302.917 231.32 302.54C230.793 302.292 230.252 302.075 229.7 301.89C228.95 301.379 228.313 300.719 227.83 299.95C226.423 298.363 224.5 297.325 222.402 297.017C220.303 296.71 218.163 297.154 216.36 298.27C213.55 300.13 212.08 303.43 209.68 305.8C208.45 307.03 206.98 307.99 205.74 309.22C203.284 311.834 201.683 315.134 201.15 318.68C200.637 322.209 200.493 325.781 200.72 329.34C200.69 330.419 200.846 331.494 201.18 332.52C201.539 333.361 202.032 334.137 202.64 334.82C205.688 338.802 209.774 341.867 214.45 343.68C219.15 345.34 224.64 345.14 228.84 342.45C229.261 342.217 229.607 341.871 229.84 341.45C230.04 340.826 230.04 340.154 229.84 339.53C229.339 337.039 229.579 334.456 230.53 332.1C231.364 330.459 232.105 328.774 232.75 327.05C233.161 325.076 233.215 323.044 232.91 321.05C232.42 315.95 231.53 310.81 232.32 305.69Z" fill="#46455B"/>
<defs>
<linearGradient id="paint0_linear_1_88" x1="83.06" y1="271.15" x2="83.06" y2="-1.00695e-05" gradientUnits="userSpaceOnUse">
<stop stop-color="#808080" stop-opacity="0.25"/>
<stop offset="0.54" stop-color="#808080" stop-opacity="0.12"/>
<stop offset="1" stop-color="#808080" stop-opacity="0.1"/>
</linearGradient>
<linearGradient id="paint1_linear_1_88" x1="77230.5" y1="169180" x2="91984.6" y2="167655" gradientUnits="userSpaceOnUse">
<stop stop-color="#808080" stop-opacity="0.25"/>
<stop offset="0.54" stop-color="#808080" stop-opacity="0.12"/>
<stop offset="1" stop-color="#808080" stop-opacity="0.1"/>
</linearGradient>
</defs>
</svg>
